<svg width="36" height="36" viewBox="0 0 36 36" fill="none" xmlns="http://www.w3.org/2000/svg">
<path d="M5.22573 27.5561L5.22573 11.878C5.22573 11.0375 5.67081 10.2599 6.3955 9.83416L19.7026 2.01739C19.8313 1.94177 19.9906 1.94086 20.1202 2.01499L25.3212 4.99047C25.5966 5.148 25.6017 5.54325 25.3305 5.70785L11.6138 14.0336C11.4894 14.109 11.4135 14.244 11.4135 14.3895L11.4135 30.7601C11.4135 30.9098 11.4939 31.048 11.624 31.122L17.4394 34.4298C17.717 34.5876 18.0616 34.3872 18.0616 34.0678L18.0616 18.214C18.0616 18.069 18.1371 17.9345 18.2608 17.8588L32.5441 9.12267" stroke="#6D87ED" stroke-width="2.96293" stroke-linecap="round"/>
<path d="M33.4247 24.601C33.4159 25.0843 33.1713 25.5332 32.7704 25.8032L19.4814 34.7534V18.8793L33.6933 9.78364L33.4247 24.601Z" fill="#6D87ED" stroke="#6D87ED" stroke-width="0.592586"/>
</svg>
