<svg width="152" height="40" viewBox="0 0 152 40" fill="none" xmlns="http://www.w3.org/2000/svg">
<path d="M5.22573 29.5561L5.22573 13.878C5.22573 13.0375 5.67081 12.2599 6.3955 11.8342L19.7026 4.01739C19.8313 3.94177 19.9906 3.94086 20.1202 4.01499L25.3212 6.99047C25.5966 7.148 25.6017 7.54325 25.3305 7.70785L11.6138 16.0336C11.4894 16.109 11.4135 16.244 11.4135 16.3895L11.4135 32.7601C11.4135 32.9098 11.4939 33.048 11.624 33.122L17.4394 36.4298C17.717 36.5876 18.0616 36.3872 18.0616 36.0678L18.0616 20.214C18.0616 20.069 18.1371 19.9345 18.2608 19.8588L32.5441 11.1227" stroke="#6D87ED" stroke-width="2.96293" stroke-linecap="round"/>
<path d="M33.4247 26.601C33.4159 27.0843 33.1713 27.5332 32.7704 27.8032L19.4814 36.7534V20.8793L33.6933 11.7836L33.4247 26.601Z" fill="#6D87ED" stroke="#6D87ED" stroke-width="0.592586"/>
<path d="M65.8958 19.6655V13.3849H59.9609V10.8496H65.8958V7.39234H68.748V19.6655H65.8958ZM53.7955 14.6237C52.038 17.1878 49.2146 18.974 45.6422 19.4638V16.8997C50.2518 16.0642 52.96 12.1748 53.0176 7.62283L55.8698 7.79569C55.8698 9.46668 55.5529 11.0224 54.9767 12.4629L62.4097 17.159L60.9404 19.1757L53.7955 14.6237ZM50.6263 29.461H69.353V31.6793H47.8029V25.2835H65.9246V23.238H47.7453V21.0196H68.748V27.3866H50.6263V29.461ZM84.1013 15.6609C81.3356 20.0112 77.1581 22.8634 72.6349 22.8634V20.1553C77.9648 20.1553 82.8625 14.3932 84.1301 7.50759L87.0688 8.02617C86.7231 9.92764 86.1469 11.7427 85.3402 13.3849L96.1728 20.6739L94.6171 22.9499L84.1013 15.6609ZM72.1451 28.1357H96.7202V30.815H72.1451V28.1357ZM118.988 7.39234H121.869V31.9963H118.988V20.0976H114.436V17.4183H118.988V7.39234ZM102.854 27.9052H109.423C111.757 27.9052 114.292 27.4442 115.79 26.724V29.3457C114.292 30.0948 111.785 30.5269 109.423 30.5269H100.002V8.28546H114.061V10.9072H102.854V17.9081H112.679V20.5298H102.854V27.9052ZM145.376 32.0251V7.39234H148.228V31.9963L145.376 32.0251ZM126.707 30.5269V8.28546H141.169V10.9072H129.588V27.9052H136.733C139.066 27.9052 141.602 27.4442 143.1 26.724V29.3457C141.602 30.066 139.009 30.5269 136.646 30.5269H126.707Z" fill="#6F89EE"/>
<path d="M65.8958 19.6655H65.6458V19.9155H65.8958V19.6655ZM65.8958 13.3849H66.1458V13.1349H65.8958V13.3849ZM59.9609 13.3849H59.7109V13.6349H59.9609V13.3849ZM59.9609 10.8496V10.5996H59.7109V10.8496H59.9609ZM65.8958 10.8496V11.0996H66.1458V10.8496H65.8958ZM65.8958 7.39234V7.14234H65.6458V7.39234H65.8958ZM68.748 7.39234H68.998V7.14234H68.748V7.39234ZM68.748 19.6655V19.9155H68.998V19.6655H68.748ZM53.7955 14.6237L53.9298 14.4129L53.7259 14.283L53.5893 14.4824L53.7955 14.6237ZM45.6422 19.4638H45.3922V19.7504L45.6761 19.7115L45.6422 19.4638ZM45.6422 16.8997L45.5976 16.6537L45.3922 16.691V16.8997H45.6422ZM53.0176 7.62283L53.0327 7.37328L52.7709 7.35742L52.7676 7.61966L53.0176 7.62283ZM55.8698 7.79569H56.1198V7.56038L55.8849 7.54614L55.8698 7.79569ZM54.9767 12.4629L54.7446 12.3701L54.6673 12.5632L54.8432 12.6743L54.9767 12.4629ZM62.4097 17.159L62.6118 17.3062L62.7691 17.0903L62.5433 16.9477L62.4097 17.159ZM60.9404 19.1757L60.8061 19.3866L61.0042 19.5128L61.1425 19.3229L60.9404 19.1757ZM50.6263 29.461H50.3763V29.711H50.6263V29.461ZM69.353 29.461H69.603V29.211H69.353V29.461ZM69.353 31.6793V31.9293H69.603V31.6793H69.353ZM47.8029 31.6793H47.5529V31.9293H47.8029V31.6793ZM47.8029 25.2835V25.0335H47.5529V25.2835H47.8029ZM65.9246 25.2835V25.5335H66.1746V25.2835H65.9246ZM65.9246 23.238H66.1746V22.988H65.9246V23.238ZM47.7453 23.238H47.4953V23.488H47.7453V23.238ZM47.7453 21.0196V20.7696H47.4953V21.0196H47.7453ZM68.748 21.0196H68.998V20.7696H68.748V21.0196ZM68.748 27.3866V27.6366H68.998V27.3866H68.748ZM50.6263 27.3866V27.1366H50.3763V27.3866H50.6263ZM65.8958 19.6655H66.1458V13.3849H65.8958H65.6458V19.6655H65.8958ZM65.8958 13.3849V13.1349H59.9609V13.3849V13.6349H65.8958V13.3849ZM59.9609 13.3849H60.2109V10.8496H59.9609H59.7109V13.3849H59.9609ZM59.9609 10.8496V11.0996H65.8958V10.8496V10.5996H59.9609V10.8496ZM65.8958 10.8496H66.1458V7.39234H65.8958H65.6458V10.8496H65.8958ZM65.8958 7.39234V7.64234H68.748V7.39234V7.14234H65.8958V7.39234ZM68.748 7.39234H68.498V19.6655H68.748H68.998V7.39234H68.748ZM68.748 19.6655V19.4155H65.8958V19.6655V19.9155H68.748V19.6655ZM53.7955 14.6237L53.5893 14.4824C51.8737 16.9854 49.1145 18.7354 45.6082 19.2161L45.6422 19.4638L45.6761 19.7115C49.3148 19.2127 52.2024 17.3903 54.0017 14.765L53.7955 14.6237ZM45.6422 19.4638H45.8922V16.8997H45.6422H45.3922V19.4638H45.6422ZM45.6422 16.8997L45.6868 17.1457C50.4342 16.2852 53.2087 12.2761 53.2676 7.62599L53.0176 7.62283L52.7676 7.61966C52.7112 12.0736 50.0695 15.8432 45.5976 16.6537L45.6422 16.8997ZM53.0176 7.62283L53.0025 7.87237L55.8547 8.04523L55.8698 7.79569L55.8849 7.54614L53.0327 7.37328L53.0176 7.62283ZM55.8698 7.79569H55.6198C55.6198 9.43427 55.3092 10.9585 54.7446 12.3701L54.9767 12.4629L55.2088 12.5558C55.7966 11.0863 56.1198 9.49909 56.1198 7.79569H55.8698ZM54.9767 12.4629L54.8432 12.6743L62.2762 17.3704L62.4097 17.159L62.5433 16.9477L55.1102 12.2516L54.9767 12.4629ZM62.4097 17.159L62.2077 17.0118L60.7383 19.0285L60.9404 19.1757L61.1425 19.3229L62.6118 17.3062L62.4097 17.159ZM60.9404 19.1757L61.0747 18.9649L53.9298 14.4129L53.7955 14.6237L53.6611 14.8346L60.8061 19.3866L60.9404 19.1757ZM50.6263 29.461V29.711H69.353V29.461V29.211H50.6263V29.461ZM69.353 29.461H69.103V31.6793H69.353H69.603V29.461H69.353ZM69.353 31.6793V31.4293H47.8029V31.6793V31.9293H69.353V31.6793ZM47.8029 31.6793H48.0529V25.2835H47.8029H47.5529V31.6793H47.8029ZM47.8029 25.2835V25.5335H65.9246V25.2835V25.0335H47.8029V25.2835ZM65.9246 25.2835H66.1746V23.238H65.9246H65.6746V25.2835H65.9246ZM65.9246 23.238V22.988H47.7453V23.238V23.488H65.9246V23.238ZM47.7453 23.238H47.9953V21.0196H47.7453H47.4953V23.238H47.7453ZM47.7453 21.0196V21.2696H68.748V21.0196V20.7696H47.7453V21.0196ZM68.748 21.0196H68.498V27.3866H68.748H68.998V21.0196H68.748ZM68.748 27.3866V27.1366H50.6263V27.3866V27.6366H68.748V27.3866ZM50.6263 27.3866H50.3763V29.461H50.6263H50.8763V27.3866H50.6263ZM84.1013 15.6609L84.2438 15.4554L84.0299 15.3072L83.8904 15.5267L84.1013 15.6609ZM72.6349 22.8634H72.3849V23.1134H72.6349V22.8634ZM72.6349 20.1553V19.9053H72.3849V20.1553H72.6349ZM84.1301 7.50759L84.1736 7.26139L83.9292 7.21826L83.8843 7.46232L84.1301 7.50759ZM87.0688 8.02617L87.3148 8.07089L87.3597 7.82364L87.1122 7.77997L87.0688 8.02617ZM85.3402 13.3849L85.1158 13.2746L85.0196 13.4705L85.2006 13.5923L85.3402 13.3849ZM96.1728 20.6739L96.3792 20.8149L96.5213 20.607L96.3124 20.4664L96.1728 20.6739ZM94.6171 22.9499L94.4746 23.1553L94.6814 23.2987L94.8234 23.0909L94.6171 22.9499ZM72.1451 28.1357V27.8857H71.8951V28.1357H72.1451ZM96.7202 28.1357H96.9702V27.8857H96.7202V28.1357ZM96.7202 30.815V31.065H96.9702V30.815H96.7202ZM72.1451 30.815H71.8951V31.065H72.1451V30.815ZM84.1013 15.6609L83.8904 15.5267C81.1555 19.8284 77.048 22.6134 72.6349 22.6134V22.8634V23.1134C77.2682 23.1134 81.5156 20.194 84.3123 15.795L84.1013 15.6609ZM72.6349 22.8634H72.8849V20.1553H72.6349H72.3849V22.8634H72.6349ZM72.6349 20.1553V20.4053C75.3927 20.4053 78.0125 18.9157 80.0926 16.5798C82.1742 14.2421 83.7345 11.0375 84.376 7.55285L84.1301 7.50759L83.8843 7.46232C83.2582 10.8633 81.7358 13.9825 79.7191 16.2473C77.7009 18.5138 75.2069 19.9053 72.6349 19.9053V20.1553ZM84.1301 7.50759L84.0867 7.75378L87.0253 8.27237L87.0688 8.02617L87.1122 7.77997L84.1736 7.26139L84.1301 7.50759ZM87.0688 8.02617L86.8228 7.98145C86.4808 9.8627 85.9112 11.6554 85.1158 13.2746L85.3402 13.3849L85.5646 13.4951C86.3825 11.83 86.9654 9.99259 87.3148 8.07089L87.0688 8.02617ZM85.3402 13.3849L85.2006 13.5923L96.0332 20.8813L96.1728 20.6739L96.3124 20.4664L85.4797 13.1775L85.3402 13.3849ZM96.1728 20.6739L95.9664 20.5328L94.4107 22.8088L94.6171 22.9499L94.8234 23.0909L96.3792 20.8149L96.1728 20.6739ZM94.6171 22.9499L94.7595 22.7444L84.2438 15.4554L84.1013 15.6609L83.9589 15.8663L94.4746 23.1553L94.6171 22.9499ZM72.1451 28.1357V28.3857H96.7202V28.1357V27.8857H72.1451V28.1357ZM96.7202 28.1357H96.4702V30.815H96.7202H96.9702V28.1357H96.7202ZM96.7202 30.815V30.565H72.1451V30.815V31.065H96.7202V30.815ZM72.1451 30.815H72.3951V28.1357H72.1451H71.8951V30.815H72.1451ZM118.988 7.39234V7.14234H118.738V7.39234H118.988ZM121.869 7.39234H122.119V7.14234H121.869V7.39234ZM121.869 31.9963V32.2463H122.119V31.9963H121.869ZM118.988 31.9963H118.738V32.2463H118.988V31.9963ZM118.988 20.0976H119.238V19.8476H118.988V20.0976ZM114.436 20.0976H114.186V20.3476H114.436V20.0976ZM114.436 17.4183V17.1683H114.186V17.4183H114.436ZM118.988 17.4183V17.6683H119.238V17.4183H118.988ZM102.854 27.9052H102.604V28.1552H102.854V27.9052ZM115.79 26.724H116.04V26.3264L115.682 26.4987L115.79 26.724ZM115.79 29.3457L115.902 29.5693L116.04 29.5002V29.3457H115.79ZM100.002 30.5269H99.7521V30.7769H100.002V30.5269ZM100.002 8.28546V8.03546H99.7521V8.28546H100.002ZM114.061 8.28546H114.311V8.03546H114.061V8.28546ZM114.061 10.9072V11.1572H114.311V10.9072H114.061ZM102.854 10.9072V10.6572H102.604V10.9072H102.854ZM102.854 17.9081H102.604V18.1581H102.854V17.9081ZM112.679 17.9081H112.929V17.6581H112.679V17.9081ZM112.679 20.5298V20.7798H112.929V20.5298H112.679ZM102.854 20.5298V20.2798H102.604V20.5298H102.854ZM118.988 7.39234V7.64234H121.869V7.39234V7.14234H118.988V7.39234ZM121.869 7.39234H121.619V31.9963H121.869H122.119V7.39234H121.869ZM121.869 31.9963V31.7463H118.988V31.9963V32.2463H121.869V31.9963ZM118.988 31.9963H119.238V20.0976H118.988H118.738V31.9963H118.988ZM118.988 20.0976V19.8476H114.436V20.0976V20.3476H118.988V20.0976ZM114.436 20.0976H114.686V17.4183H114.436H114.186V20.0976H114.436ZM114.436 17.4183V17.6683H118.988V17.4183V17.1683H114.436V17.4183ZM118.988 17.4183H119.238V7.39234H118.988H118.738V17.4183H118.988ZM102.854 27.9052V28.1552H109.423V27.9052V27.6552H102.854V27.9052ZM109.423 27.9052V28.1552C111.779 28.1552 114.355 27.6914 115.898 26.9493L115.79 26.724L115.682 26.4987C114.229 27.1971 111.735 27.6552 109.423 27.6552V27.9052ZM115.79 26.724H115.54V29.3457H115.79H116.04V26.724H115.79ZM115.79 29.3457L115.678 29.1221C114.229 29.8467 111.766 30.2769 109.423 30.2769V30.5269V30.7769C111.805 30.7769 114.355 30.3428 115.902 29.5693L115.79 29.3457ZM109.423 30.5269V30.2769H100.002V30.5269V30.7769H109.423V30.5269ZM100.002 30.5269H100.252V8.28546H100.002H99.7521V30.5269H100.002ZM100.002 8.28546V8.53546H114.061V8.28546V8.03546H100.002V8.28546ZM114.061 8.28546H113.811V10.9072H114.061H114.311V8.28546H114.061ZM114.061 10.9072V10.6572H102.854V10.9072V11.1572H114.061V10.9072ZM102.854 10.9072H102.604V17.9081H102.854H103.104V10.9072H102.854ZM102.854 17.9081V18.1581H112.679V17.9081V17.6581H102.854V17.9081ZM112.679 17.9081H112.429V20.5298H112.679H112.929V17.9081H112.679ZM112.679 20.5298V20.2798H102.854V20.5298V20.7798H112.679V20.5298ZM102.854 20.5298H102.604V27.9052H102.854H103.104V20.5298H102.854ZM145.376 32.0251H145.126V32.2776L145.378 32.2751L145.376 32.0251ZM145.376 7.39234V7.14234H145.126V7.39234H145.376ZM148.228 7.39234H148.478V7.14234H148.228V7.39234ZM148.228 31.9963L148.23 32.2463L148.478 32.2437V31.9963H148.228ZM126.707 30.5269H126.457V30.7769H126.707V30.5269ZM126.707 8.28546V8.03546H126.457V8.28546H126.707ZM141.169 8.28546H141.419V8.03546H141.169V8.28546ZM141.169 10.9072V11.1572H141.419V10.9072H141.169ZM129.588 10.9072V10.6572H129.338V10.9072H129.588ZM129.588 27.9052H129.338V28.1552H129.588V27.9052ZM143.1 26.724H143.35V26.3264L142.991 26.4987L143.1 26.724ZM143.1 29.3457L143.208 29.571L143.35 29.5029V29.3457H143.1ZM145.376 32.0251H145.626V7.39234H145.376H145.126V32.0251H145.376ZM145.376 7.39234V7.64234H148.228V7.39234V7.14234H145.376V7.39234ZM148.228 7.39234H147.978V31.9963H148.228H148.478V7.39234H148.228ZM148.228 31.9963L148.225 31.7463L145.373 31.7751L145.376 32.0251L145.378 32.2751L148.23 32.2463L148.228 31.9963ZM126.707 30.5269H126.957V8.28546H126.707H126.457V30.5269H126.707ZM126.707 8.28546V8.53546H141.169V8.28546V8.03546H126.707V8.28546ZM141.169 8.28546H140.919V10.9072H141.169H141.419V8.28546H141.169ZM141.169 10.9072V10.6572H129.588V10.9072V11.1572H141.169V10.9072ZM129.588 10.9072H129.338V27.9052H129.588H129.838V10.9072H129.588ZM129.588 27.9052V28.1552H136.733V27.9052V27.6552H129.588V27.9052ZM136.733 27.9052V28.1552C139.088 28.1552 141.664 27.6914 143.208 26.9493L143.1 26.724L142.991 26.4987C141.539 27.1971 139.044 27.6552 136.733 27.6552V27.9052ZM143.1 26.724H142.85V29.3457H143.1H143.35V26.724H143.1ZM143.1 29.3457L142.991 29.1204C141.539 29.8185 138.988 30.2769 136.646 30.2769V30.5269V30.7769C139.029 30.7769 141.664 30.3135 143.208 29.571L143.1 29.3457ZM136.646 30.5269V30.2769H126.707V30.5269V30.7769H136.646V30.5269Z" fill="#6D87ED"/>
</svg>
